<svg xmlns="http://www.w3.org/2000/svg" viewBox="0 0 128 128" fill="none" role="img" aria-labelledby="favicon-title">
  <title id="favicon-title">LLM API Pricing Tracker favicon</title>
  <defs>
    <linearGradient id="fav-accent" x1="38" y1="38" x2="88" y2="90" gradientUnits="userSpaceOnUse">
      <stop offset="0" stop-color="#7088B7"/>
      <stop offset="0.52" stop-color="#6B8472"/>
      <stop offset="1" stop-color="#9A7756"/>
    </linearGradient>
  </defs>

  <rect x="12" y="12" width="104" height="104" rx="26" fill="#F4EBDD" stroke="#D8C8B1" stroke-width="3.5"/>
  <path d="M28 92V42" stroke="#CDB99D" stroke-width="3.5" stroke-linecap="round"/>
  <path d="M28 92H92" stroke="#CDB99D" stroke-width="3.5" stroke-linecap="round"/>
  <g fill="#C8A66A">
    <rect x="38" y="52" width="8" height="40" rx="2.5"/>
    <rect x="51" y="64" width="8" height="28" rx="2.5"/>
    <rect x="64" y="76" width="8" height="16" rx="2.5"/>
  </g>
  <path d="M36 50L47 57L57 55L67 68L76 74L84 87" stroke="url(#fav-accent)" stroke-width="5" stroke-linecap="round" stroke-linejoin="round"/>
  <path d="M75 88H84V79" stroke="url(#fav-accent)" stroke-width="5" stroke-linecap="round" stroke-linejoin="round"/>
  <g fill="#4F3B33">
    <circle cx="36" cy="50" r="3.5"/>
    <circle cx="47" cy="57" r="3.5"/>
    <circle cx="57" cy="55" r="3.5"/>
    <circle cx="67" cy="68" r="3.5"/>
    <circle cx="76" cy="74" r="3.5"/>
  </g>
</svg>
